<?xml version="1.0" encoding="utf-8"?>
<!-- Generator: Adobe Illustrator 24.2.3, SVG Export Plug-In . SVG Version: 6.00 Build 0)  -->
<svg version="1.1" id="Layer_1" xmlns="http://www.w3.org/2000/svg" xmlns:xlink="http://www.w3.org/1999/xlink" x="0px" y="0px"
	 viewBox="0 0 188 191" style="enable-background:new 0 0 188 191;" xml:space="preserve">
<style type="text/css">
	.st0{fill:#CE3802;}
	.st1{fill:#820206;}
	.st2{fill:#D52502;}
	.st3{fill:#B30006;}
	.st4{fill:#BE0C12;}
	.st5{fill:#B30106;}
	.st6{fill:#820105;}
	.st7{fill:#D62503;}
	.st8{fill:#CD3700;}
	.st9{fill:#E14813;}
</style>
<g>
	<path class="st0" d="M20.8,50.2c12.4-12,24.8-23.9,37.8-36.5c5.3,0,11.7,0,18.2,0c0.5,2.1,2.3,3.2,3.6,4.6
		c10.5,10.5,21,21.1,31.6,31.6c-9.5,0.1-18.9,0-28.4,0.2c-3.2,0.1-6.7-1-9.7,1.1c-1.5-1.5-3.5-0.9-5.2-0.9
		C52.8,50.2,36.8,50.2,20.8,50.2z"/>
	<path class="st1" d="M112.1,49.9c-10.5-10.5-21.1-21-31.6-31.6c-1.4-1.4-3.1-2.5-3.6-4.6c17.8,0,35.6,0,54.2,0
		c2.7,2.9,5.9,6.2,9.1,9.5c0,17.3-0.1,34.6-0.1,51.9c0,0.6,0,1.2,0,1.7C130.7,67.9,121.4,58.9,112.1,49.9z"/>
	<path class="st2" d="M20.8,50.2c16,0,32,0,48,0.1c1.8,0,3.7-0.6,5.2,0.9c-7.8,7.8-15.5,15.7-23.3,23.5c-1.5,1.5-3.1,2.9-3,5.3
		c-2.5-1.2-3.2,1.2-4.3,2.3C32.9,92.5,22.5,102.7,12.1,113c-0.1-18-0.2-36-0.3-54C14.9,56.1,17.8,53.1,20.8,50.2z"/>
	<path class="st3" d="M140,76.9c0-0.6,0-1.2,0-1.7c1.6-1.5,1-3.4,1-5.1c0.1-15.3,0.1-30.6,0.1-45.8c11.7,11.6,23.4,23.2,35.2,34.9
		c-0.1,6.7-0.2,13.3-0.4,20c-5.6,5.4-11.1,10.9-16.7,16.2c-6.3,5.8-11.5,12.7-18.7,17.6C140.3,100.9,140.1,88.9,140,76.9z"/>
	<path class="st4" d="M141.1,24.2c0,15.3,0,30.6-0.1,45.8c0,1.7,0.6,3.7-1,5.1c0-17.3,0.1-34.6,0.1-51.9
		C140.4,23.5,140.8,23.8,141.1,24.2z"/>
	<path class="st5" d="M12.1,113c10.4-10.2,20.8-20.5,31.2-30.7c1.1-1.1,1.8-3.5,4.3-2.3c0.1,8.1,0,16.2,0.2,24.2
		c0.1,3.9-1.2,7.9,1,11.6c-1.5,1.5-0.9,3.4-0.9,5.2C48,136.9,48,152.8,48,168.7c-12-11.9-24.1-23.9-36.1-35.8
		C12,126.3,12,119.6,12.1,113z"/>
	<path class="st6" d="M48,168.7c0-15.9,0-31.8,0.1-47.6c0-1.8-0.6-3.7,0.9-5.2c9,8.7,18,17.4,27,26.1c0.3,0.3,0.6,0.6,0.9,0.9
		c11.3,11.5,22.7,23.1,34,34.6c-18,0.1-36,0.1-54,0.2C53.9,174.6,50.9,171.7,48,168.7z"/>
	<path class="st7" d="M140.5,112.9c7.1-4.9,12.4-11.8,18.7-17.6c5.7-5.3,11.2-10.8,16.7-16.2c0.1,18,0.2,36,0.2,54
		c-3,2.9-5.9,5.9-8.9,8.8c-16,0-32,0-48.1-0.1c-1.7,0-3.7,0.6-5.2-0.9c4-4.1,8.2-8.1,12.1-12.4C130.8,123.2,136.9,119.1,140.5,112.9
		z"/>
	<path class="st8" d="M110.9,177.4c-11.3-11.5-22.7-23.1-34-34.6c29.8,0,59.6,0,89.4,0c-11.7,11.6-23.4,23.2-35.1,34.8
		c-6.4,0-12.8-0.1-19.2-0.1C111.6,177.5,111.2,177.5,110.9,177.4z"/>
	<path class="st9" d="M166.3,142.8c-29.8,0-59.6,0-89.4,0c-0.3-0.3-0.6-0.6-0.9-0.9c7.5-0.1,14.9,0,22.4-0.2
		c5.2-0.2,10.6,1.1,15.7-0.9c1.5,1.6,3.4,0.9,5.2,0.9c16,0.1,32,0.1,48.1,0.1C166.9,142.2,166.6,142.5,166.3,142.8z"/>
</g>
</svg>
